<?xml version="1.0" encoding="UTF-8" standalone="no"?>
<svg
   xmlns:dc="http://purl.org/dc/elements/1.1/"
   xmlns:cc="http://creativecommons.org/ns#"
   xmlns:rdf="http://www.w3.org/1999/02/22-rdf-syntax-ns#"
   xmlns:svg="http://www.w3.org/2000/svg"
   xmlns="http://www.w3.org/2000/svg"
   id="svg8"
   version="1.1"
   viewBox="0 0 151.45329 77.788696"
   height="77.788696mm"
   width="151.45329mm">
  <defs
     id="defs2" />
  <metadata
     id="metadata5">
    <rdf:RDF>
      <cc:Work
         rdf:about="">
        <dc:format>image/svg+xml</dc:format>
        <dc:type
           rdf:resource="http://purl.org/dc/dcmitype/StillImage" />
        <dc:title></dc:title>
      </cc:Work>
    </rdf:RDF>
  </metadata>
  <g
     transform="translate(-26.75941,-184.68306)"
     id="layer1">
    <path
       id="path828"
       d="m 52.853384,188.38047 c -0.16653,0.009 -0.329764,0.0497 -0.480468,0.12109 0,0 -0.04634,0.0251 -0.04688,0.0254 l -0.002,-0.002 c -0.0065,0.003 -0.01496,0.0121 -0.02148,0.0156 -0.110558,0.053 -5.174319,2.48556 -10.449219,6.74414 -5.332661,4.30522 -10.975067,10.49657 -11.582031,18.18555 -10e-4,0.0169 -0.0017,0.0339 -0.002,0.0508 -0.335261,8.52426 7.899042,16.76452 17.005859,16.3418 l -0.05664,0.002 77.500005,-0.13672 c 0.91406,-0.002 1.52923,-0.93686 1.16992,-1.77734 l -7.47265,-17.44336 c -0.20226,-0.47219 -0.66798,-0.77702 -1.18165,-0.77344 0,0 -17.548491,0.12609 -35.240235,-0.67969 -12.363354,-0.56309 -20.61833,-1.97072 -25.878906,-3.74218 -5.260576,-1.77147 -7.399097,-3.85804 -8.039063,-5.60157 -0.639965,-1.74353 0.01285,-3.55402 1.273438,-5.25 1.260584,-1.69597 3.118807,-3.12217 4.171875,-3.68164 1.199864,-0.6437 0.691895,-2.46763 -0.667969,-2.39843 z m -7.644662,8.90458 c 0,0 -0.185666,1.51049 0.472787,3.3044 1.029931,2.80596 3.985513,5.24354 9.619141,7.14063 5.633628,1.89708 14.074709,3.30357 26.578125,3.87304 17.093464,0.77853 33.239385,0.68771 34.521485,0.67969 l 6.38477,14.89844 c 0,0 -65.309494,1.6248 -74.923728,-1.38046 -3.622421,-1.13231 -5.608066,-3.12379 -7.47435,-5.6207 -1.540482,-2.06102 -2.673135,-4.65779 -2.702699,-7.23073 -0.05218,-4.54104 1.36221,-9.56174 4.475561,-12.86792 1.135959,-1.20632 2.147709,-2.15955 3.048908,-2.79639 z"
       style="color:#000000;font-style:normal;font-variant:normal;font-weight:normal;font-stretch:normal;font-size:medium;line-height:normal;font-family:sans-serif;font-variant-ligatures:normal;font-variant-position:normal;font-variant-caps:normal;font-variant-numeric:normal;font-variant-alternates:normal;font-feature-settings:normal;text-indent:0;text-align:start;text-decoration:none;text-decoration-line:none;text-decoration-style:solid;text-decoration-color:#000000;letter-spacing:normal;word-spacing:normal;text-transform:none;writing-mode:lr-tb;direction:ltr;text-orientation:mixed;dominant-baseline:auto;baseline-shift:baseline;text-anchor:start;white-space:normal;shape-padding:0;clip-rule:nonzero;display:inline;overflow:visible;visibility:visible;opacity:1;isolation:auto;mix-blend-mode:normal;color-interpolation:sRGB;color-interpolation-filters:linearRGB;solid-color:#000000;solid-opacity:1;vector-effect:none;fill:#2980b9;fill-opacity:1;fill-rule:evenodd;stroke:none;stroke-width:2.55138946;stroke-linecap:butt;stroke-linejoin:round;stroke-miterlimit:4;stroke-dasharray:none;stroke-dashoffset:0;stroke-opacity:1;color-rendering:auto;image-rendering:auto;shape-rendering:auto;text-rendering:auto;enable-background:accumulate" />
    <path
       id="path832"
       d="m 152.06532,188.964 c -1.04258,1.20941 0.26569,2.72939 1.04781,3.7753 1.69587,2.26779 2.26872,4.59655 1.8246,6.95028 -0.31528,1.67087 -1.73591,2.99004 -3.00414,4.12266 -1.71012,1.52725 -3.50528,2.49638 -5.97992,3.39906 -5.67638,2.0044 -8.97365,2.20294 -19.97988,2.64177 -0.90492,-0.008 -1.7046,0.87514 -1.34176,1.7488 l 7.97119,17.48879 c 0.1986,0.47795 0.64655,0.78699 1.14168,0.78761 l 21.84572,-0.10812 c 4.20531,-0.45712 8.1981,-3.13063 10.80559,-5.13713 1.29909,-0.99966 3.92887,-3.21189 6.14202,-6.29789 1.62831,-2.27052 2.27947,-5.30729 2.16085,-8.09883 -0.0898,-2.1118 -1.04424,-4.16374 -2.14855,-5.96604 -1.79383,-2.92764 -4.31251,-5.43723 -7.04957,-7.51023 -2.69306,-2.03967 -4.01019,-2.93904 -7.68822,-5.3441 -1.76635,-1.15502 -4.61297,-3.24388 -5.74742,-2.45193 z m 13.54071,12.97403 c 1.18265,1.17465 2.29874,2.49274 3.19477,3.92075 0.86364,1.37638 1.80245,2.81271 2.0632,4.41655 0.29633,1.82266 0.15285,4.09071 -0.63393,5.50338 -1.88849,3.39097 -5.2452,5.87178 -8.43389,8.12266 -1.60186,1.13074 -3.42097,1.95562 -5.26361,2.62583 -2.65779,0.96668 -21.97509,0.72114 -21.97509,0.72114 l -7.009,-15.37302 c 8.19164,-0.12629 13.25867,-0.81867 15.85915,-1.29024 3.76893,-0.63492 10.45203,-2.66595 12.58559,-3.89776 1.53483,-0.87017 4.4251,-2.62122 7.39069,-6.67173 0,0 1.31334,1.0198 2.22212,1.92244 z"
       style="color:#000000;font-style:normal;font-variant:normal;font-weight:normal;font-stretch:normal;font-size:medium;line-height:normal;font-family:sans-serif;font-variant-ligatures:normal;font-variant-position:normal;font-variant-caps:normal;font-variant-numeric:normal;font-variant-alternates:normal;font-feature-settings:normal;text-indent:0;text-align:start;text-decoration:none;text-decoration-line:none;text-decoration-style:solid;text-decoration-color:#000000;letter-spacing:normal;word-spacing:normal;text-transform:none;writing-mode:lr-tb;direction:ltr;text-orientation:mixed;dominant-baseline:auto;baseline-shift:baseline;text-anchor:start;white-space:normal;shape-padding:0;clip-rule:nonzero;display:inline;overflow:visible;visibility:visible;opacity:1;isolation:auto;mix-blend-mode:normal;color-interpolation:sRGB;color-interpolation-filters:linearRGB;solid-color:#000000;solid-opacity:1;vector-effect:none;fill:#2980b9;fill-opacity:1;fill-rule:evenodd;stroke:none;stroke-width:2.62995815;stroke-linecap:butt;stroke-linejoin:round;stroke-miterlimit:4;stroke-dasharray:none;stroke-dashoffset:0;stroke-opacity:1;color-rendering:auto;image-rendering:auto;shape-rendering:auto;text-rendering:auto;enable-background:accumulate" />
    <g
       transform="matrix(1.1688703,0,0,1.1688703,-13.971102,5.921015)"
       style="stroke:#2980b9;stroke-width:2.75;stroke-miterlimit:4;stroke-dasharray:none;stroke-opacity:1"
       id="g845">
      <path
         style="fill:none;fill-rule:evenodd;stroke:#2980b9;stroke-width:2.75;stroke-linecap:butt;stroke-linejoin:round;stroke-miterlimit:4;stroke-dasharray:none;stroke-opacity:1"
         d="m 124.77377,194.75439 c 0,0 -0.44253,4.79932 1.67446,9.48877 1.27357,2.82117 4.97682,10.87358 4.97682,10.87358 l 5.1724,-1.20047 c -0.63678,-1.878 -3.72262,-8.43574 -5.28271,-11.20907 -3.76201,-6.68761 -6.54097,-7.95281 -6.54097,-7.95281 z"
         id="path834" />
      <path
         style="fill:none;fill-rule:evenodd;stroke:#2980b9;stroke-width:2.75;stroke-linecap:round;stroke-linejoin:round;stroke-miterlimit:4;stroke-dasharray:none;stroke-opacity:1"
         d="m 106.09769,159.31871 3.90694,-2.00461"
         id="path838" />
      <path
         style="fill:none;fill-rule:evenodd;stroke:#2980b9;stroke-width:2.75;stroke-linecap:round;stroke-linejoin:miter;stroke-miterlimit:4;stroke-dasharray:none;stroke-opacity:1"
         d="m 108.20085,158.57945 16.57292,36.17494"
         id="path840" />
    </g>
    <text
       transform="scale(0.97695022,1.0235936)"
       id="text824"
       y="219.83905"
       x="48.781181"
       style="font-style:normal;font-variant:normal;font-weight:normal;font-stretch:normal;font-size:16.36948776px;line-height:125%;font-family:Audiowide;-inkscape-font-specification:Audiowide;letter-spacing:0px;word-spacing:0px;fill:#000000;fill-opacity:1;stroke:none;stroke-width:0.25577325px;stroke-linecap:butt;stroke-linejoin:miter;stroke-opacity:1"
       xml:space="preserve"><tspan
         style="letter-spacing:-0.46389544px;stroke-width:0.25577325px"
         y="219.83905"
         x="48.781181"
         id="tspan822">Alcea.sk</tspan></text>
  </g>
</svg>
